<?xml version="1.0" encoding="UTF-8" standalone="no"?>
<!-- Created with Inkscape (http://www.inkscape.org/) -->

<svg
   xmlns:ns1="http://www.iki.fi/pav/software/textext/"
   xmlns:dc="http://purl.org/dc/elements/1.1/"
   xmlns:cc="http://creativecommons.org/ns#"
   xmlns:rdf="http://www.w3.org/1999/02/22-rdf-syntax-ns#"
   xmlns:svg="http://www.w3.org/2000/svg"
   xmlns="http://www.w3.org/2000/svg"
   xmlns:sodipodi="http://sodipodi.sourceforge.net/DTD/sodipodi-0.dtd"
   xmlns:inkscape="http://www.inkscape.org/namespaces/inkscape"
   width="57.749523mm"
   height="39.934364mm"
   viewBox="0 0 57.749523 39.934364"
   version="1.1"
   id="svg5854"
   inkscape:version="0.92.3 (2405546, 2018-03-11)"
   sodipodi:docname="4_3_1_property6.svg">
  <sodipodi:namedview
     id="base"
     pagecolor="#ffffff"
     bordercolor="#666666"
     borderopacity="1.0"
     inkscape:pageopacity="0.0"
     inkscape:pageshadow="2"
     inkscape:zoom="1.979899"
     inkscape:cx="13.511231"
     inkscape:cy="137.98163"
     inkscape:document-units="mm"
     inkscape:current-layer="layer1"
     showgrid="false"
     inkscape:window-width="1920"
     inkscape:window-height="1137"
     inkscape:window-x="1912"
     inkscape:window-y="88"
     inkscape:window-maximized="1"
     fit-margin-top="0"
     fit-margin-left="0"
     fit-margin-right="0"
     fit-margin-bottom="0"
     inkscape:snap-global="false" />
  <defs
     id="defs5848">
    <clipPath
       clipPathUnits="userSpaceOnUse"
       id="clipPath1475">
      <path
         d="M 851.39252,229.24365 H 1632.9864 V 854.51904 H 851.39252 Z"
         id="path1473"
         inkscape:connector-curvature="0"
         style="clip-rule:evenodd" />
    </clipPath>
    <clipPath
       clipPathUnits="userSpaceOnUse"
       id="clipPath1421">
      <path
         d="M 54.166664,917.04639 H 2420.8332 v 56.2749 H 54.166664 Z"
         id="path1419"
         inkscape:connector-curvature="0"
         style="clip-rule:evenodd" />
    </clipPath>
    <clipPath
       clipPathUnits="userSpaceOnUse"
       id="clipPath1393">
      <path
         d="M 54.166664,873.27686 H 2420.8332 v 43.76953 H 54.166664 Z"
         id="path1391"
         inkscape:connector-curvature="0"
         style="clip-rule:evenodd" />
    </clipPath>
    <clipPath
       clipPathUnits="userSpaceOnUse"
       id="clipPath1379">
      <path
         d="M 54.166664,882.65625 H 2420.8332 V 1017.0903 H 54.166664 Z"
         id="path1377"
         inkscape:connector-curvature="0"
         style="clip-rule:evenodd" />
    </clipPath>
    <clipPath
       clipPathUnits="userSpaceOnUse"
       id="clipPath1353">
      <path
         d="m 851.39252,229.24365 v 625.27539 h 781.59398 l 10e-5,-625.27539 z"
         id="path1351"
         inkscape:connector-curvature="0"
         style="clip-rule:evenodd" />
    </clipPath>
    <clipPath
       clipPathUnits="userSpaceOnUse"
       id="clipPath1341">
      <path
         d="m 1490.2153,229.24365 h 142.7713 v 37.76663 h -142.7713 z"
         id="path1339"
         inkscape:connector-curvature="0"
         style="clip-rule:evenodd" />
    </clipPath>
    <clipPath
       clipPathUnits="userSpaceOnUse"
       id="clipPath1325">
      <path
         d="m 851.39252,229.24365 v 625.27539 h 781.59398 l 10e-5,-625.27539 z"
         id="path1323"
         inkscape:connector-curvature="0"
         style="clip-rule:evenodd" />
    </clipPath>
    <clipPath
       clipPathUnits="userSpaceOnUse"
       id="clipPath1313">
      <path
         d="m 1595.2199,752.68829 h 37.7666 v 101.83075 h -37.7666 z"
         id="path1311"
         inkscape:connector-curvature="0"
         style="clip-rule:evenodd" />
    </clipPath>
    <clipPath
       clipPathUnits="userSpaceOnUse"
       id="clipPath1301">
      <path
         d="m 851.39252,229.24365 v 625.27539 h 781.59398 l 10e-5,-625.27539 z"
         id="path1299"
         inkscape:connector-curvature="0"
         style="clip-rule:evenodd" />
    </clipPath>
    <clipPath
       clipPathUnits="userSpaceOnUse"
       id="clipPath1289">
      <path
         d="m 1490.2153,229.24365 h 142.7713 v 37.76663 h -142.7713 z"
         id="path1287"
         inkscape:connector-curvature="0"
         style="clip-rule:evenodd" />
    </clipPath>
    <clipPath
       clipPathUnits="userSpaceOnUse"
       id="clipPath1277">
      <path
         d="m 851.39252,229.24365 v 625.27539 h 781.59398 l 10e-5,-625.27539 z"
         id="path1275"
         inkscape:connector-curvature="0"
         style="clip-rule:evenodd" />
    </clipPath>
    <clipPath
       clipPathUnits="userSpaceOnUse"
       id="clipPath1265">
      <path
         d="m 1595.2199,752.68829 h 37.7666 v 101.83075 h -37.7666 z"
         id="path1263"
         inkscape:connector-curvature="0"
         style="clip-rule:evenodd" />
    </clipPath>
    <clipPath
       clipPathUnits="userSpaceOnUse"
       id="clipPath1253">
      <path
         d="m 851.39252,229.24365 v 625.27539 h 781.59398 l 10e-5,-625.27539 z"
         id="path1251"
         inkscape:connector-curvature="0"
         style="clip-rule:evenodd" />
    </clipPath>
  </defs>
  <metadata
     id="metadata5851">
    <rdf:RDF>
      <cc:Work
         rdf:about="">
        <dc:format>image/svg+xml</dc:format>
        <dc:type
           rdf:resource="http://purl.org/dc/dcmitype/StillImage" />
        <dc:title />
      </cc:Work>
    </rdf:RDF>
  </metadata>
  <g
     inkscape:label="Layer 1"
     inkscape:groupmode="layer"
     id="layer1"
     transform="translate(-84.240058,-97.266437)">
    <g
       transform="matrix(0.08466666,0,0,0.08466666,11.096698,65.815858)"
       id="g1247"
       style="fill:#000000;fill-opacity:1;stroke:#000000;stroke-opacity:1;stroke-width:3.5433075;stroke-miterlimit:4;stroke-dasharray:none">
      <g
         id="g1249"
         clip-path="url(#clipPath1253)"
         style="fill:#000000;fill-opacity:1;stroke:#000000;stroke-opacity:1;stroke-width:3.5433075;stroke-miterlimit:4;stroke-dasharray:none">
        <g
           id="g1255"
           transform="matrix(3.1263759,0,0,3.1263759,851.39252,229.24365)"
           style="fill:#000000;fill-opacity:1;stroke:#000000;stroke-opacity:1;stroke-width:1.1333594;stroke-miterlimit:4;stroke-dasharray:none">
          <path
             d="M 4,171.42857 H 199.44554"
             style="fill:#000000;stroke:#000000;stroke-width:1.1333594;stroke-linecap:butt;stroke-linejoin:miter;stroke-miterlimit:4;stroke-dasharray:none;stroke-opacity:1;fill-opacity:1"
             id="path1257"
             inkscape:connector-curvature="0"
             sodipodi:nodetypes="cc" />
        </g>
      </g>
    </g>
    <g
       transform="matrix(0.08466666,0,0,0.08466666,0.51336341,65.815858)"
       id="g1259"
       style="fill:#000000;fill-opacity:1;stroke:#000000;stroke-opacity:1;stroke-width:1.00393711;stroke-miterlimit:4;stroke-dasharray:none">
      <g
         id="g1261"
         clip-path="url(#clipPath1265)"
         style="fill:#000000;fill-opacity:1;stroke:#000000;stroke-opacity:1;stroke-width:1.00393711;stroke-miterlimit:4;stroke-dasharray:none">
        <g
           id="g1267"
           transform="matrix(2.5011008,0,0,2.5011008,1595.2199,752.68829)"
           style="fill:#000000;fill-opacity:1;stroke:#000000;stroke-opacity:1;stroke-width:0.4013981;stroke-miterlimit:4;stroke-dasharray:none">
          <path
             d="M 0,0 10,5 0,10 Z"
             style="fill:#000000;fill-opacity:1;fill-rule:nonzero;stroke:#000000;stroke-opacity:1;stroke-width:0.4013981;stroke-miterlimit:4;stroke-dasharray:none"
             id="path1269"
             inkscape:connector-curvature="0" />
        </g>
      </g>
    </g>
    <path
       inkscape:connector-curvature="0"
       id="path1329"
       style="fill:#000000;fill-opacity:1;fill-rule:nonzero;stroke:none;stroke-width:0.26469982"
       d="m 94.298651,128.50357 v 3.9705 m 33.087479,-3.9705 v 3.9705" />
    <path
       inkscape:connector-curvature="0"
       id="path1331"
       style="fill:none;stroke:#003399;stroke-width:0.26469982;stroke-linecap:butt;stroke-linejoin:miter;stroke-miterlimit:10;stroke-dasharray:none;stroke-opacity:1"
       d="m 94.298651,128.50357 v 3.9705 m 33.087479,-3.9705 v 3.9705" />
    <path
       sodipodi:nodetypes="cc"
       inkscape:connector-curvature="0"
       id="path1333"
       style="fill:none;stroke:#000000;stroke-width:0.26469981999999997;stroke-linecap:butt;stroke-linejoin:miter;stroke-miterlimit:10;stroke-dasharray:none;stroke-opacity:1"
       d="M 87.583746,137.2008 V 99.362859" />
    <g
       transform="matrix(0.08466666,0,0,0.08466666,-39.646606,76.777167)"
       id="g1335"
       style="fill:#000000;fill-opacity:1">
      <g
         id="g1337"
         clip-path="url(#clipPath1341)"
         style="fill:#000000;fill-opacity:1">
        <g
           id="g1343"
           transform="matrix(0,-2.5011008,2.5011008,0,1490.2153,267.01028)"
           style="fill:#000000;fill-opacity:1">
          <path
             d="M 0,0 10,5 0,10 Z"
             style="fill:#000000;fill-opacity:1;fill-rule:nonzero;stroke:none"
             id="path1345"
             inkscape:connector-curvature="0" />
        </g>
      </g>
    </g>
    <path
       inkscape:connector-curvature="0"
       id="path1357"
       style="fill:#000000;fill-opacity:1;fill-rule:nonzero;stroke:none;stroke-width:0.26469982"
       d="m 136.25357,115.40093 h 3.9705 m -3.9705,-22.499484 h 3.9705" />
    <path
       inkscape:connector-curvature="0"
       id="path1361"
       style="fill:#003399;fill-opacity:0.14901961;fill-rule:nonzero;stroke:none;stroke-width:0.23061231"
       d="m 94.210434,130.60226 v -11.48083 l 0.0074,-0.004 0.185794,-0.0941 0.185794,-0.0893 0.185794,-0.0845 0.185794,-0.0799 0.185794,-0.0754 0.185794,-0.0709 0.185794,-0.0665 0.185793,-0.0622 0.185795,-0.058 0.185793,-0.0538 0.185794,-0.0498 0.185794,-0.0458 0.185794,-0.0419 0.185794,-0.0381 0.185794,-0.0344 0.185794,-0.0307 0.185794,-0.0272 0.185794,-0.0237 0.185794,-0.0203 0.185794,-0.0169 0.185794,-0.0137 0.185794,-0.0105 0.185794,-0.008 0.185793,-0.005 0.185795,-0.002 0.185793,0.002 0.185794,0.004 0.185794,0.007 0.185794,0.009 0.185794,0.0118 0.185794,0.0141 0.185794,0.0165 0.18579,0.0187 0.1858,0.0209 0.18579,0.023 0.18579,0.025 0.1858,0.0269 0.18579,0.0288 0.1858,0.0305 0.18579,0.0322 0.18579,0.0338 0.1858,0.0353 0.18579,0.0367 0.1858,0.038 0.18579,0.0393 0.18579,0.0405 0.1858,0.0416 0.18579,0.0426 0.18579,0.0435 0.1858,0.0444 0.18579,0.0452 0.1858,0.0459 0.18579,0.0464 0.18579,0.047 0.1858,0.0474 0.18579,0.0477 0.1858,0.0481 0.18579,0.0482 0.18579,0.0483 0.1858,0.0483 0.18579,0.0483 0.1858,0.0481 0.18579,0.0479 0.18579,0.0477 0.1858,0.0472 0.18579,0.0467 0.1858,0.0462 0.18579,0.0456 0.18579,0.0449 0.1858,0.0441 0.18579,0.0432 0.1858,0.0422 0.18579,0.0412 0.18579,0.0401 0.1858,0.0389 0.18579,0.0376 0.18579,0.0362 0.1858,0.0348 0.18579,0.0332 0.1858,0.0316 0.18579,0.0299 0.18579,0.0281 0.1858,0.0263 0.18579,0.0243 0.1858,0.0222 0.18579,0.0201 0.1858,0.0179 0.18579,0.0157 0.18579,0.0133 0.1858,0.0109 0.18579,0.008 0.1858,0.006 0.18579,0.003 0.18579,2e-4 0.1858,-0.002 0.18579,-0.005 0.18579,-0.009 0.1858,-0.0116 0.18579,-0.0148 0.1858,-0.0181 0.18579,-0.0215 0.18579,-0.0249 0.1858,-0.0284 0.18579,-0.032 0.1858,-0.0357 0.18579,-0.0395 0.18579,-0.0433 0.1858,-0.0472 0.18579,-0.0512 0.18579,-0.0553 0.1858,-0.0594 0.18579,-0.0637 0.1858,-0.0681 0.18579,-0.0725 0.1858,-0.077 0.18579,-0.0815 0.18579,-0.0862 0.1858,-0.091 0.18579,-0.0958 0.1858,-0.10072 0.18579,-0.10571 0.18579,-0.11079 0.1858,-0.11595 0.18579,-0.12119 0.18579,-0.12651 0.1858,-0.13193 0.18579,-0.13741 0.18378,-0.1414 0.1767,-0.14118 0.17065,-0.14125 0.16459,-0.14088 0.15954,-0.14096 0.15449,-0.14068 0.15045,-0.14101 0.14642,-0.14105 0.14237,-0.14082 0.13935,-0.14136 0.13631,-0.1417 0.13228,-0.14076 0.12925,-0.14067 0.12723,-0.14152 0.1242,-0.14109 0.12218,-0.14167 0.11915,-0.1409 0.11713,-0.14119 0.11511,-0.14136 0.11309,-0.14141 0.11107,-0.14135 0.10906,-0.14116 0.10703,-0.14088 0.10602,-0.14181 0.10401,-0.14134 0.10198,-0.14075 0.10098,-0.14146 0.099,-0.14068 0.0979,-0.14124 0.0969,-0.14178 0.0949,-0.14075 0.0939,-0.14112 0.0929,-0.14146 0.0919,-0.14175 0.0909,-0.14198 0.0899,-0.14217 0.0879,-0.14067 0.0868,-0.1407 0.0858,-0.14072 0.0848,-0.14066 0.0848,-0.14226 0.0838,-0.14214 0.0828,-0.14199 0.0818,-0.14176 0.0808,-0.14151 0.0798,-0.1412 0.0788,-0.14084 0.0788,-0.14226 0.0777,-0.14185 0.0767,-0.14137 0.0757,-0.14087 0.0757,-0.1422 0.0747,-0.14163 0.0737,-0.141 0.0737,-0.14229 0.0727,-0.1416 0.0717,-0.14087 0.0717,-0.1421 0.0707,-0.14131 0.0707,-0.14252 0.0697,-0.14166 0.0687,-0.14077 0.0687,-0.14191 0.0677,-0.14096 0.0677,-0.14208 0.0666,-0.14107 0.0666,-0.14216 0.0656,-0.14109 0.0656,-0.14216 0.0646,-0.14103 0.0646,-0.14207 0.0636,-0.14088 0.0636,-0.14191 0.0626,-0.14064 0.0626,-0.14165 0.0626,-0.14265 0.0616,-0.14132 0.0616,-0.14229 0.0606,-0.14092 0.0606,-0.14186 0.0606,-0.14281 0.0596,-0.14136 0.0596,-0.14229 0.0586,-0.14078 0.0586,-0.14167 0.0586,-0.14258 0.0576,-0.141 0.0576,-0.14187 0.0576,-0.14275 0.0566,-0.14111 0.0565,-0.14195 0.0566,-0.14281 0.0555,-0.14109 0.0555,-0.14192 0.0555,-0.14275 0.0545,-0.14097 0.0545,-0.14177 0.0545,-0.14257 0.0535,-0.14073 0.0535,-0.1415 0.0535,-0.14229 0.0535,-0.14307 0.0525,-0.14113 0.0525,-0.1419 0.0525,-0.14266 0.0515,-0.14065 0.0515,-0.1414 0.0515,-0.14212 0.0515,-0.14287 0.0505,-0.14079 0.0505,-0.1415 0.0505,-0.14222 0.0505,-0.14293 0.0495,-0.14077 0.037,-0.10577 v 28.70106 H 94.210434" />
    <path
       inkscape:connector-curvature="0"
       id="path1363"
       style="fill:none;stroke:#003399;stroke-width:0.34999999;stroke-linecap:butt;stroke-linejoin:miter;stroke-miterlimit:10;stroke-dasharray:none;stroke-opacity:1"
       d="m 86.322639,128.68096 0.06967,-0.1413 0.07068,-0.14215 0.07068,-0.14094 0.07169,-0.14174 0.0727,-0.14246 0.0727,-0.14121 0.07371,-0.1419 0.07472,-0.14253 0.07472,-0.14121 0.07573,-0.14178 0.07674,-0.14231 0.07674,-0.14095 0.07775,-0.1414 0.07876,-0.14182 0.07977,-0.14218 0.07977,-0.14074 0.08078,-0.14104 0.08179,-0.14129 0.0828,-0.14151 0.08381,-0.14166 0.08482,-0.14178 0.08583,-0.14184 0.08684,-0.14184 0.08785,-0.14181 0.08886,-0.14172 0.08987,-0.14158 0.09088,-0.1414 0.09189,-0.14117 0.0929,-0.14086 0.09492,-0.14204 0.09593,-0.14161 0.09694,-0.14114 0.09896,-0.14204 0.09996,-0.14143 0.100975,-0.14076 0.102994,-0.14141 0.105014,-0.14196 0.106024,-0.14106 0.108043,-0.14141 0.110063,-0.14165 0.112082,-0.14179 0.114102,-0.14179 0.116121,-0.14169 0.118141,-0.14146 0.12016,-0.14113 0.12218,-0.14066 0.125209,-0.14122 0.128238,-0.14158 0.130258,-0.14067 0.133287,-0.1407 0.137325,-0.14157 0.140356,-0.14115 0.144394,-0.14154 0.147423,-0.14068 0.152472,-0.14149 0.156512,-0.14104 0.16156,-0.14117 0.166608,-0.14095 0.172667,-0.14117 0.178726,-0.14095 0.185794,-0.14099 0.185794,-0.13545 0.185794,-0.13 0.185794,-0.12461 0.185794,-0.11932 0.185794,-0.11411 0.185794,-0.10898 0.185794,-0.10392 0.185794,-0.099 0.185793,-0.0941 0.185795,-0.0893 0.185793,-0.0846 0.185794,-0.0799 0.185794,-0.0754 0.185794,-0.0709 0.185794,-0.0665 0.185794,-0.0622 0.185794,-0.058 0.185794,-0.0538 0.185794,-0.0498 0.185794,-0.0458 0.185794,-0.0419 0.185794,-0.0381 0.185794,-0.0344 0.185794,-0.0307 0.185793,-0.0272 0.185794,-0.0237 0.185794,-0.0203 0.185794,-0.0169 0.185794,-0.0137 0.185794,-0.0105 0.185794,-0.008 0.185794,-0.005 0.185794,-0.002 0.185794,0.002 0.185794,0.004 0.185794,0.007 0.185794,0.009 0.185794,0.0118 0.185793,0.0141 0.1858,0.0165 0.18579,0.0187 0.1858,0.0209 0.18579,0.023 0.18579,0.025 0.1858,0.0269 0.18579,0.0288 0.1858,0.0305 0.18579,0.0322 0.18579,0.0338 0.1858,0.0353 0.18579,0.0367 0.1858,0.038 0.18579,0.0393 0.18579,0.0405 0.1858,0.0416 0.18579,0.0426 0.1858,0.0435 0.18579,0.0444 0.18579,0.0452 0.1858,0.0458 0.18579,0.0465 0.18579,0.047 0.1858,0.0474 0.18579,0.0478 0.1858,0.048 0.18579,0.0482 0.18579,0.0483 0.1858,0.0483 0.18579,0.0483 0.1858,0.0481 0.18579,0.0479 0.18579,0.0477 0.1858,0.0472 0.18579,0.0468 0.1858,0.0462 0.18579,0.0456 0.18579,0.0449 0.1858,0.0441 0.18579,0.0432 0.1858,0.0423 0.18579,0.0412 0.18579,0.0401 0.1858,0.0389 0.18579,0.0376 0.1858,0.0362 0.18579,0.0348 0.18579,0.0332 0.1858,0.0316 0.18579,0.0299 0.1858,0.0281 0.18579,0.0263 0.18579,0.0243 0.1858,0.0222 0.18579,0.0201 0.1858,0.0179 0.18579,0.0156 0.18579,0.0133 0.1858,0.0108 0.18579,0.008 0.1858,0.006 0.18579,0.003 0.18579,2e-4 0.1858,-0.002 0.18579,-0.005 0.18579,-0.009 0.1858,-0.0116 0.18579,-0.0148 0.1858,-0.0181 0.18579,-0.0215 0.18579,-0.0249 0.1858,-0.0284 0.18579,-0.032 0.1858,-0.0357 0.18579,-0.0394 0.18579,-0.0433 0.1858,-0.0472 0.18579,-0.0512 0.18579,-0.0553 0.1858,-0.0595 0.18579,-0.0637 0.1858,-0.0681 0.18579,-0.0725 0.1858,-0.077 0.18579,-0.0816 0.18579,-0.0862 0.1858,-0.091 0.18579,-0.0958 0.1858,-0.10073 0.18579,-0.10571 0.18579,-0.11079 0.1858,-0.11594 0.18579,-0.1212 0.18579,-0.12651 0.1858,-0.13192 0.18579,-0.13742 0.18378,-0.1414 0.1767,-0.14117 0.17065,-0.14125 0.16459,-0.14089 0.15954,-0.14095 0.15449,-0.14069 0.15045,-0.14101 0.14642,-0.14105 0.14237,-0.14082 0.13935,-0.14135 0.13631,-0.1417 0.13228,-0.14077 0.12925,-0.14067 0.12723,-0.14152 0.1242,-0.14109 0.12218,-0.14166 0.11915,-0.14091 0.11713,-0.14119 0.11511,-0.14135 0.11309,-0.14142 0.11107,-0.14135 0.10906,-0.14116 0.10703,-0.14087 0.10602,-0.14182 0.10401,-0.14134 0.10198,-0.14074 0.10098,-0.14146 0.099,-0.14068 0.0979,-0.14125 0.0969,-0.14178 0.0949,-0.14074 0.0939,-0.14113 0.0929,-0.14146 0.0919,-0.14174 0.0909,-0.14199 0.0899,-0.14216 0.0879,-0.14067 0.0868,-0.14071 0.0858,-0.14071 0.0848,-0.14067 0.0848,-0.14225 0.0838,-0.14215 0.0828,-0.14198 0.0818,-0.14177 0.0808,-0.14151 0.0798,-0.1412 0.0788,-0.14084 0.0788,-0.14226 0.0777,-0.14185 0.0767,-0.14137 0.0757,-0.14086 0.0757,-0.14221 0.0747,-0.14162 0.0737,-0.141 0.0737,-0.14229 0.0727,-0.1416 0.0717,-0.14087 0.0717,-0.14211 0.0707,-0.1413 0.0707,-0.14252 0.0697,-0.14166 0.0687,-0.14077 0.0687,-0.14192 0.0677,-0.14095 0.0677,-0.14208 0.0666,-0.14107 0.0666,-0.14216 0.0656,-0.14109 0.0656,-0.14217 0.0646,-0.14102 0.0646,-0.14207 0.0636,-0.14089 0.0636,-0.1419 0.0626,-0.14065 0.0626,-0.14164 0.0626,-0.14265 0.0616,-0.14132 0.0616,-0.1423 0.0606,-0.14091 0.0606,-0.14187 0.0606,-0.14281 0.0596,-0.14136 0.0596,-0.14229 0.0586,-0.14077 0.0586,-0.14168 0.0586,-0.14258 0.0576,-0.14099 0.0576,-0.14188 0.0576,-0.14275 0.0566,-0.1411 0.0565,-0.14196 0.0566,-0.14281 0.0555,-0.14109 0.0555,-0.14192 0.0555,-0.14275 0.0545,-0.14096 0.0545,-0.14177 0.0545,-0.14258 0.0535,-0.14072 0.0535,-0.14151 0.0535,-0.14228 0.0535,-0.14307 0.0525,-0.14114 0.0525,-0.1419 0.0525,-0.14265 0.0515,-0.14066 0.0515,-0.14139 0.0515,-0.14213 0.0515,-0.14287 0.0505,-0.14079 0.0505,-0.1415 0.0505,-0.14221 0.0505,-0.14293 0.0495,-0.14078 0.0495,-0.14146 0.0495,-0.14216 0.0495,-0.14285 0.0495,-0.14355 0.0485,-0.1413 0.0485,-0.14196 0.0485,-0.14264 0.0485,-0.14332 0.0475,-0.14098 0.0475,-0.14164 0.0475,-0.14228 0.0475,-0.14294 0.0474,-0.14359 0.0465,-0.14117 0.0464,-0.141798 0.0465,-0.142427 0.0464,-0.143058 0.0464,-0.143692 0.0454,-0.14118 0.0454,-0.141788 0.0454,-0.142397 0.0454,-0.143007 0.0454,-0.143619 0.0444,-0.141019 0.0444,-0.141605 0.0444,-0.142194 0.0444,-0.142783"
       sodipodi:nodetypes="cccccccccccccccccccccccccccccccccccccccccccccccccccccccccccccccccccccccccccccccccccccccccccccccccccccccccccccccccccccccccccccccccccccccccccccccccccccccccccccccccccccccccccccccccccccccccccccccccccccccccccccccccccccccccccccccccccccccccccccccccccccccccccccccccccccccccccccccccccccccccccccccccccccccccccccccccccccccccccccccccccccccccccccccccc" />
    <g
       transform="matrix(0.08466666,0,0,0.08466666,11.096698,65.815858)"
       id="g1373">
      <g
         id="g1375"
         clip-path="url(#clipPath1379)">
        <g
           id="g1381"
           transform="matrix(3.1263759,0,0,3.1263759,54.166664,-3341.0776)">
          <text
             transform="translate(199,1377)"
             style="font-variant:normal;font-weight:normal;font-size:0px;line-height:0%;font-family:Arial;-inkscape-font-specification:Arial;writing-mode:lr-tb;fill:#000000;fill-opacity:1;fill-rule:nonzero;stroke:none"
             id="text1385">
            <tspan
               x="0"
               y="0"
               id="tspan1383">∫</tspan>
          </text>
        </g>
      </g>
    </g>
    <g
       transform="matrix(0.08466666,0,0,0.08466666,11.096698,65.815858)"
       id="g1387">
      <g
         id="g1389"
         clip-path="url(#clipPath1393)">
        <g
           id="g1395"
           transform="matrix(3.1263759,0,0,3.1263759,54.166664,-3341.0776)">
          <text
             transform="translate(218.04688,1359)"
             style="font-variant:normal;font-weight:normal;font-size:0px;line-height:0%;font-family:Arial;-inkscape-font-specification:Arial;writing-mode:lr-tb;fill:#000000;fill-opacity:1;fill-rule:nonzero;stroke:none"
             id="text1399">
            <tspan
               x="0"
               y="0"
               id="tspan1397">b</tspan>
          </text>
        </g>
      </g>
    </g>
    <g
       transform="matrix(0.08466666,0,0,0.08466666,11.096698,65.815858)"
       id="g1415">
      <g
         id="g1417"
         clip-path="url(#clipPath1421)">
        <g
           id="g1423"
           transform="matrix(3.1263759,0,0,3.1263759,54.166664,-3341.0776)">
          <text
             transform="translate(436.17188,1377)"
             style="font-variant:normal;font-weight:normal;font-size:0px;line-height:0%;font-family:Arial;-inkscape-font-specification:Arial;writing-mode:lr-tb;fill:#000000;fill-opacity:1;fill-rule:nonzero;stroke:none"
             id="text1427">
            <tspan
               x="0"
               y="0"
               id="tspan1425">d</tspan>
          </text>
          <text
             transform="translate(444.9375,1377)"
             style="font-variant:normal;font-weight:normal;font-size:0px;line-height:0%;font-family:Arial;-inkscape-font-specification:Arial;writing-mode:lr-tb;fill:#000000;fill-opacity:1;fill-rule:nonzero;stroke:none"
             id="text1431">
            <tspan
               x="0"
               y="0"
               id="tspan1429">x</tspan>
          </text>
        </g>
      </g>
    </g>
    <path
       d="m 117.23753,130.52594 0.0187,-11.9888 0.18579,-0.12651 0.1858,-0.13193 0.18579,-0.13741 0.18378,-0.1414 0.1767,-0.14118 0.17065,-0.14125 0.16459,-0.14088 0.15954,-0.14096 0.15449,-0.14068 0.15045,-0.14101 0.14642,-0.14105 0.14237,-0.14082 0.13935,-0.14136 0.13631,-0.1417 0.13228,-0.14076 0.12925,-0.14067 0.12723,-0.14152 0.1242,-0.14109 0.12218,-0.14167 0.11915,-0.1409 0.11713,-0.14119 0.11511,-0.14136 0.11309,-0.14141 0.11107,-0.14135 0.10906,-0.14116 0.10703,-0.14088 0.10602,-0.14181 0.10401,-0.14134 0.10198,-0.14075 0.10098,-0.14146 0.099,-0.14068 0.0979,-0.14124 0.0969,-0.14178 0.0949,-0.14075 0.0939,-0.14112 0.0929,-0.14146 0.0919,-0.14175 0.0909,-0.14198 0.0899,-0.14217 0.0879,-0.14067 0.0868,-0.1407 0.0858,-0.14072 0.0848,-0.14066 0.0848,-0.14226 0.0838,-0.14214 0.0828,-0.14199 0.0818,-0.14176 0.0808,-0.14151 0.0798,-0.1412 0.0788,-0.14084 0.0788,-0.14226 0.0777,-0.14185 0.0767,-0.14137 0.0757,-0.14087 0.0757,-0.1422 0.0747,-0.14163 0.0737,-0.141 0.0737,-0.14229 0.0727,-0.1416 0.0717,-0.14087 0.0717,-0.1421 0.0707,-0.14131 0.0707,-0.14252 0.0697,-0.14166 0.0687,-0.14077 0.0687,-0.14191 0.0677,-0.14096 0.0677,-0.14208 0.0666,-0.14107 0.0666,-0.14216 0.0656,-0.14109 0.0656,-0.14216 0.0646,-0.14103 0.0646,-0.14207 0.0636,-0.14088 0.0636,-0.14191 0.0626,-0.14064 0.0626,-0.14165 0.0626,-0.14265 0.0616,-0.14132 0.0616,-0.14229 0.0606,-0.14092 0.0606,-0.14186 0.0606,-0.14281 0.0596,-0.14136 0.0596,-0.14229 0.0586,-0.14078 0.0586,-0.14167 0.0586,-0.14258 0.0576,-0.141 0.0576,-0.14187 0.0576,-0.14275 0.0566,-0.14111 0.0565,-0.14195 0.0566,-0.14281 0.0555,-0.14109 0.0555,-0.14192 0.0555,-0.14275 0.0545,-0.14097 0.0545,-0.14177 0.0545,-0.14257 0.0535,-0.14073 0.0535,-0.1415 0.0535,-0.14229 0.0535,-0.14307 0.0525,-0.14113 0.0525,-0.1419 0.0525,-0.14266 0.0515,-0.14065 0.0515,-0.1414 0.0515,-0.14212 0.0515,-0.14287 0.0505,-0.14079 0.0505,-0.1415 0.0505,-0.14222 0.0505,-0.14293 0.0495,-0.14077 0.037,-0.10577 v 28.70106"
       style="fill:#003399;fill-opacity:0.44444448;fill-rule:nonzero;stroke:none;stroke-width:0.23061231"
       id="path6642"
       inkscape:connector-curvature="0"
       sodipodi:nodetypes="ccccccccccccccccccccccccccccccccccccccccccccccccccccccccccccccccccccccccccccccccccccccccccccccccccccccccccccccccccccccccc" />
    <path
       d="m 117.2607,128.50358 v 3.9705"
       style="fill:none;stroke:#003399;stroke-width:0.26469982;stroke-linecap:butt;stroke-linejoin:miter;stroke-miterlimit:10;stroke-dasharray:none;stroke-opacity:1"
       id="path6644"
       inkscape:connector-curvature="0"
       sodipodi:nodetypes="cc" />
    <g
       transform="matrix(0.352778,0,0,0.352778,40.831989,88.018231)"
       ns1:version="0.8.0"
       ns1:texconverter="pdflatex"
       ns1:pdfconverter="pdf2svg"
       ns1:text="\\(a\\)\n"
       ns1:preamble="default_packages.tex"
       ns1:scale="1.0"
       ns1:alignment="middle center"
       inkscapeversion="0.92.3"
       ns1:jacobian_sqrt="0.352778"
       id="g6717">
      <g
         id="surface1">
        <g
           style="fill:#000000;fill-opacity:1"
           id="g6714">
          <path
             inkscape:connector-curvature="0"
             style="stroke:none;stroke-width:0"
             d="M 3.71875,-3.765625 C 3.53125,-4.140625 3.25,-4.40625 2.796875,-4.40625 c -1.15625,0 -2.390625,1.46875 -2.390625,2.921875 0,0.9375 0.546875,1.59375 1.3125,1.59375 0.203125,0 0.703125,-0.046875 1.296875,-0.75 0.078125,0.421875 0.4375,0.75 0.90625,0.75 0.359375,0 0.578125,-0.234375 0.75,-0.546875 0.15625,-0.359375 0.296875,-0.96875 0.296875,-0.984375 0,-0.109375 -0.09375,-0.109375 -0.125,-0.109375 -0.09375,0 -0.109375,0.046875 -0.140625,0.1875 -0.171875,0.640625 -0.34375,1.234375 -0.75,1.234375 -0.28125,0 -0.296875,-0.265625 -0.296875,-0.453125 0,-0.21875 0.015625,-0.3125 0.125,-0.75 C 3.890625,-1.71875 3.90625,-1.828125 4,-2.203125 L 4.359375,-3.59375 c 0.0625,-0.28125 0.0625,-0.296875 0.0625,-0.34375 0,-0.171875 -0.109375,-0.265625 -0.28125,-0.265625 -0.25,0 -0.390625,0.21875 -0.421875,0.4375 z M 3.078125,-1.1875 C 3.015625,-1 3.015625,-0.984375 2.875,-0.8125 2.4375,-0.265625 2.03125,-0.109375 1.75,-0.109375 c -0.5,0 -0.640625,-0.546875 -0.640625,-0.9375 0,-0.5 0.3125,-1.71875 0.546875,-2.1875 0.3125,-0.578125 0.75,-0.953125 1.15625,-0.953125 0.640625,0 0.78125,0.8125 0.78125,0.875 0,0.0625 -0.015625,0.125 -0.03125,0.171875 z m 0,0"
             transform="translate(148.712,134.765)"
             id="path6712" />
        </g>
      </g>
    </g>
    <g
       id="g6867"
       ns1:jacobian_sqrt="0.352778"
       inkscapeversion="0.92.3"
       ns1:alignment="middle center"
       ns1:scale="1.0"
       ns1:preamble="default_packages.tex"
       ns1:text="\\(x\\)\n"
       ns1:pdfconverter="pdf2svg"
       ns1:texconverter="pdflatex"
       ns1:version="0.8.0"
       transform="matrix(0.352778,0,0,0.352778,84.348756,85.735088)">
      <g
         id="g6865">
        <g
           id="g6863"
           style="fill:#000000;fill-opacity:1">
          <path
             id="path6861"
             transform="translate(148.712,134.765)"
             d="M 3.328125,-3.015625 C 3.390625,-3.265625 3.625,-4.1875 4.3125,-4.1875 c 0.046875,0 0.296875,0 0.5,0.125 C 4.53125,-4 4.34375,-3.765625 4.34375,-3.515625 c 0,0.15625 0.109375,0.34375 0.375,0.34375 0.21875,0 0.53125,-0.171875 0.53125,-0.578125 0,-0.515625 -0.578125,-0.65625 -0.921875,-0.65625 -0.578125,0 -0.921875,0.53125 -1.046875,0.75 -0.25,-0.65625 -0.78125,-0.75 -1.078125,-0.75 -1.03125,0 -1.609375,1.28125 -1.609375,1.53125 0,0.109375 0.109375,0.109375 0.125,0.109375 0.078125,0 0.109375,-0.03125 0.125,-0.109375 0.34375,-1.0625 1,-1.3125 1.34375,-1.3125 0.1875,0 0.53125,0.09375 0.53125,0.671875 0,0.3125 -0.171875,0.96875 -0.53125,2.375 -0.15625,0.609375 -0.515625,1.03125 -0.953125,1.03125 -0.0625,0 -0.28125,0 -0.5,-0.125 0.25,-0.0625 0.46875,-0.265625 0.46875,-0.546875 0,-0.265625 -0.21875,-0.34375 -0.359375,-0.34375 -0.3125,0 -0.546875,0.25 -0.546875,0.578125 0,0.453125 0.484375,0.65625 0.921875,0.65625 0.671875,0 1.03125,-0.703125 1.046875,-0.75 0.125,0.359375 0.484375,0.75 1.078125,0.75 1.03125,0 1.59375,-1.28125 1.59375,-1.53125 0,-0.109375 -0.078125,-0.109375 -0.109375,-0.109375 -0.09375,0 -0.109375,0.046875 -0.140625,0.109375 -0.328125,1.078125 -1,1.3125 -1.3125,1.3125 -0.390625,0 -0.546875,-0.3125 -0.546875,-0.65625 0,-0.21875 0.046875,-0.4375 0.15625,-0.875 z m 0,0"
             style="stroke:none"
             inkscape:connector-curvature="0" />
        </g>
      </g>
    </g>
    <g
       id="g7619"
       ns1:jacobian_sqrt="0.352778"
       inkscapeversion="0.92.3"
       ns1:alignment="middle center"
       ns1:scale="1.0"
       ns1:preamble="default_packages.tex"
       ns1:text="\\(y\\)\n"
       ns1:pdfconverter="pdf2svg"
       ns1:texconverter="pdflatex"
       ns1:version="0.8.0"
       transform="matrix(0.352778,0,0,0.352778,31.576643,51.396212)">
      <g
         id="g7617">
        <g
           id="g7615"
           style="fill:#000000;fill-opacity:1">
          <path
             id="path7613"
             transform="translate(148.712,134.765)"
             d="m 4.84375,-3.796875 c 0.046875,-0.140625 0.046875,-0.15625 0.046875,-0.234375 0,-0.171875 -0.140625,-0.265625 -0.296875,-0.265625 -0.09375,0 -0.25,0.0625 -0.34375,0.203125 -0.015625,0.0625 -0.109375,0.359375 -0.140625,0.546875 -0.078125,0.25 -0.140625,0.53125 -0.203125,0.796875 l -0.453125,1.796875 c -0.03125,0.140625 -0.46875,0.84375 -1.125,0.84375 -0.5,0 -0.609375,-0.4375 -0.609375,-0.8125 C 1.71875,-1.375 1.890625,-2 2.21875,-2.875 2.375,-3.28125 2.421875,-3.390625 2.421875,-3.59375 c 0,-0.4375 -0.3125,-0.8125 -0.8125,-0.8125 -0.953125,0 -1.3125,1.453125 -1.3125,1.53125 0,0.109375 0.09375,0.109375 0.109375,0.109375 0.109375,0 0.109375,-0.03125 0.15625,-0.1875 0.28125,-0.9375 0.671875,-1.234375 1.015625,-1.234375 0.078125,0 0.25,0 0.25,0.3125 0,0.25 -0.109375,0.515625 -0.171875,0.703125 -0.40625,1.0625 -0.578125,1.625 -0.578125,2.09375 0,0.890625 0.625,1.1875 1.21875,1.1875 0.390625,0 0.71875,-0.171875 1,-0.453125 -0.125,0.515625 -0.25,1.015625 -0.640625,1.546875 -0.265625,0.328125 -0.640625,0.625 -1.09375,0.625 -0.140625,0 -0.59375,-0.03125 -0.765625,-0.421875 0.15625,0 0.296875,0 0.421875,-0.125 C 1.328125,1.203125 1.421875,1.0625 1.421875,0.875 1.421875,0.5625 1.15625,0.53125 1.0625,0.53125 0.828125,0.53125 0.5,0.6875 0.5,1.171875 c 0,0.5 0.4375,0.875 1.0625,0.875 1.015625,0 2.046875,-0.90625 2.328125,-2.03125 z m 0,0"
             style="stroke:none;stroke-width:0"
             inkscape:connector-curvature="0" />
        </g>
      </g>
    </g>
    <g
       id="g3073"
       ns1:jacobian_sqrt="0.529167"
       inkscapeversion="0.92.3"
       ns1:alignment="middle center"
       ns1:scale="1.5"
       ns1:preamble="default_packages.tex"
       ns1:text="\\(y=f(x)\\)\n"
       ns1:pdfconverter="pdf2svg"
       ns1:texconverter="pdflatex"
       ns1:version="0.8.0"
       transform="matrix(0.36124468,0,0,0.36124468,74.702809,54.589396)"
       style="fill:#003399;fill-opacity:1;stroke:none">
      <g
         id="g3071"
         style="fill:#003399;fill-opacity:1;stroke:none">
        <g
           id="g3049"
           style="fill:#003399;fill-opacity:1;stroke:none">
          <path
             id="path3047"
             transform="translate(148.712,134.765)"
             d="m 4.84375,-3.796875 c 0.046875,-0.140625 0.046875,-0.15625 0.046875,-0.234375 0,-0.171875 -0.140625,-0.265625 -0.296875,-0.265625 -0.09375,0 -0.25,0.0625 -0.34375,0.203125 -0.015625,0.0625 -0.109375,0.359375 -0.140625,0.546875 -0.078125,0.25 -0.140625,0.53125 -0.203125,0.796875 l -0.453125,1.796875 c -0.03125,0.140625 -0.46875,0.84375 -1.125,0.84375 -0.5,0 -0.609375,-0.4375 -0.609375,-0.8125 C 1.71875,-1.375 1.890625,-2 2.21875,-2.875 2.375,-3.28125 2.421875,-3.390625 2.421875,-3.59375 c 0,-0.4375 -0.3125,-0.8125 -0.8125,-0.8125 -0.953125,0 -1.3125,1.453125 -1.3125,1.53125 0,0.109375 0.09375,0.109375 0.109375,0.109375 0.109375,0 0.109375,-0.03125 0.15625,-0.1875 0.28125,-0.9375 0.671875,-1.234375 1.015625,-1.234375 0.078125,0 0.25,0 0.25,0.3125 0,0.25 -0.109375,0.515625 -0.171875,0.703125 -0.40625,1.0625 -0.578125,1.625 -0.578125,2.09375 0,0.890625 0.625,1.1875 1.21875,1.1875 0.390625,0 0.71875,-0.171875 1,-0.453125 -0.125,0.515625 -0.25,1.015625 -0.640625,1.546875 -0.265625,0.328125 -0.640625,0.625 -1.09375,0.625 -0.140625,0 -0.59375,-0.03125 -0.765625,-0.421875 0.15625,0 0.296875,0 0.421875,-0.125 C 1.328125,1.203125 1.421875,1.0625 1.421875,0.875 1.421875,0.5625 1.15625,0.53125 1.0625,0.53125 0.828125,0.53125 0.5,0.6875 0.5,1.171875 c 0,0.5 0.4375,0.875 1.0625,0.875 1.015625,0 2.046875,-0.90625 2.328125,-2.03125 z m 0,0"
             style="fill:#003399;fill-opacity:1;stroke:none"
             inkscape:connector-curvature="0" />
        </g>
        <g
           id="g3053"
           style="fill:#003399;fill-opacity:1;stroke:none">
          <path
             id="path3051"
             transform="translate(156.722,134.765)"
             d="m 6.84375,-3.265625 c 0.15625,0 0.34375,0 0.34375,-0.1875 C 7.1875,-3.65625 7,-3.65625 6.859375,-3.65625 h -5.96875 c -0.140625,0 -0.328125,0 -0.328125,0.203125 0,0.1875 0.1875,0.1875 0.328125,0.1875 z m 0.015625,1.9375 c 0.140625,0 0.328125,0 0.328125,-0.203125 0,-0.1875 -0.1875,-0.1875 -0.34375,-0.1875 H 0.890625 c -0.140625,0 -0.328125,0 -0.328125,0.1875 0,0.203125 0.1875,0.203125 0.328125,0.203125 z m 0,0"
             style="fill:#003399;fill-opacity:1;stroke:none"
             inkscape:connector-curvature="0" />
        </g>
        <g
           id="g3057"
           style="fill:#003399;fill-opacity:1;stroke:none">
          <path
             id="path3055"
             transform="translate(167.238,134.765)"
             d="m 3.65625,-3.984375 h 0.859375 c 0.203125,0 0.296875,0 0.296875,-0.203125 0,-0.109375 -0.09375,-0.109375 -0.265625,-0.109375 H 3.71875 L 3.921875,-5.4375 c 0.046875,-0.203125 0.1875,-0.90625 0.25,-1.03125 0.078125,-0.1875 0.25,-0.34375 0.46875,-0.34375 0.03125,0 0.296875,0 0.484375,0.1875 -0.4375,0.03125 -0.546875,0.390625 -0.546875,0.53125 0,0.234375 0.1875,0.359375 0.375,0.359375 C 5.21875,-5.734375 5.5,-5.96875 5.5,-6.34375 c 0,-0.453125 -0.453125,-0.6875 -0.859375,-0.6875 -0.34375,0 -0.96875,0.1875 -1.265625,1.171875 -0.0625,0.203125 -0.09375,0.3125 -0.328125,1.5625 h -0.6875 c -0.203125,0 -0.3125,0 -0.3125,0.1875 0,0.125 0.09375,0.125 0.28125,0.125 h 0.65625 L 2.25,-0.046875 c -0.1875,0.96875 -0.359375,1.875 -0.875,1.875 -0.046875,0 -0.28125,0 -0.484375,-0.1875 C 1.359375,1.609375 1.453125,1.25 1.453125,1.109375 1.453125,0.875 1.265625,0.75 1.078125,0.75 0.8125,0.75 0.53125,0.984375 0.53125,1.359375 c 0,0.4375 0.4375,0.6875 0.84375,0.6875 0.546875,0 0.953125,-0.59375 1.125,-0.96875 0.328125,-0.625 0.546875,-1.828125 0.5625,-1.90625 z m 0,0"
             style="fill:#003399;fill-opacity:1;stroke:none"
             inkscape:connector-curvature="0" />
        </g>
        <g
           id="g3061"
           style="fill:#003399;fill-opacity:1;stroke:none">
          <path
             id="path3059"
             transform="translate(173.188,134.765)"
             d="m 3.296875,2.390625 c 0,-0.03125 0,-0.046875 -0.171875,-0.21875 C 1.890625,0.921875 1.5625,-0.96875 1.5625,-2.5 c 0,-1.734375 0.375,-3.46875 1.609375,-4.703125 0.125,-0.125 0.125,-0.140625 0.125,-0.171875 0,-0.078125 -0.03125,-0.109375 -0.09375,-0.109375 -0.109375,0 -1,0.6875 -1.59375,1.953125 -0.5,1.09375 -0.625,2.203125 -0.625,3.03125 0,0.78125 0.109375,1.984375 0.65625,3.125 C 2.25,1.84375 3.09375,2.5 3.203125,2.5 c 0.0625,0 0.09375,-0.03125 0.09375,-0.109375 z m 0,0"
             style="fill:#003399;fill-opacity:1;stroke:none"
             inkscape:connector-curvature="0" />
        </g>
        <g
           id="g3065"
           style="fill:#003399;fill-opacity:1;stroke:none">
          <path
             id="path3063"
             transform="translate(177.062,134.765)"
             d="M 3.328125,-3.015625 C 3.390625,-3.265625 3.625,-4.1875 4.3125,-4.1875 c 0.046875,0 0.296875,0 0.5,0.125 C 4.53125,-4 4.34375,-3.765625 4.34375,-3.515625 c 0,0.15625 0.109375,0.34375 0.375,0.34375 0.21875,0 0.53125,-0.171875 0.53125,-0.578125 0,-0.515625 -0.578125,-0.65625 -0.921875,-0.65625 -0.578125,0 -0.921875,0.53125 -1.046875,0.75 -0.25,-0.65625 -0.78125,-0.75 -1.078125,-0.75 -1.03125,0 -1.609375,1.28125 -1.609375,1.53125 0,0.109375 0.109375,0.109375 0.125,0.109375 0.078125,0 0.109375,-0.03125 0.125,-0.109375 0.34375,-1.0625 1,-1.3125 1.34375,-1.3125 0.1875,0 0.53125,0.09375 0.53125,0.671875 0,0.3125 -0.171875,0.96875 -0.53125,2.375 -0.15625,0.609375 -0.515625,1.03125 -0.953125,1.03125 -0.0625,0 -0.28125,0 -0.5,-0.125 0.25,-0.0625 0.46875,-0.265625 0.46875,-0.546875 0,-0.265625 -0.21875,-0.34375 -0.359375,-0.34375 -0.3125,0 -0.546875,0.25 -0.546875,0.578125 0,0.453125 0.484375,0.65625 0.921875,0.65625 0.671875,0 1.03125,-0.703125 1.046875,-0.75 0.125,0.359375 0.484375,0.75 1.078125,0.75 1.03125,0 1.59375,-1.28125 1.59375,-1.53125 0,-0.109375 -0.078125,-0.109375 -0.109375,-0.109375 -0.09375,0 -0.109375,0.046875 -0.140625,0.109375 -0.328125,1.078125 -1,1.3125 -1.3125,1.3125 -0.390625,0 -0.546875,-0.3125 -0.546875,-0.65625 0,-0.21875 0.046875,-0.4375 0.15625,-0.875 z m 0,0"
             style="fill:#003399;fill-opacity:1;stroke:none"
             inkscape:connector-curvature="0" />
        </g>
        <g
           id="g3069"
           style="fill:#003399;fill-opacity:1;stroke:none">
          <path
             id="path3067"
             transform="translate(182.756,134.765)"
             d="m 2.875,-2.5 c 0,-0.765625 -0.109375,-1.96875 -0.65625,-3.109375 -0.59375,-1.21875 -1.453125,-1.875 -1.546875,-1.875 -0.0625,0 -0.109375,0.046875 -0.109375,0.109375 0,0.03125 0,0.046875 0.1875,0.234375 0.984375,0.984375 1.546875,2.5625 1.546875,4.640625 0,1.71875 -0.359375,3.46875 -1.59375,4.71875 C 0.5625,2.34375 0.5625,2.359375 0.5625,2.390625 0.5625,2.453125 0.609375,2.5 0.671875,2.5 0.765625,2.5 1.671875,1.8125 2.25,0.546875 2.765625,-0.546875 2.875,-1.65625 2.875,-2.5 Z m 0,0"
             style="fill:#003399;fill-opacity:1;stroke:none"
             inkscape:connector-curvature="0" />
        </g>
      </g>
    </g>
    <g
       transform="matrix(0.352778,0,0,0.352778,74.489122,88.418967)"
       ns1:version="0.8.0"
       ns1:texconverter="pdflatex"
       ns1:pdfconverter="pdf2svg"
       ns1:text="\\(b\\)\n"
       ns1:preamble="default_packages.tex"
       ns1:scale="1.0"
       ns1:alignment="middle center"
       inkscapeversion="0.48.2"
       ns1:jacobian_sqrt="0.352778"
       id="g1143">
      <g
         id="g1141">
        <g
           style="fill:#000000;fill-opacity:1"
           id="g1139">
          <path
             inkscape:connector-curvature="0"
             style="stroke:none;stroke-width:0"
             d="m 2.375,-6.8125 c 0,0 0,-0.109375 -0.125,-0.109375 -0.21875,0 -0.953125,0.078125 -1.21875,0.109375 -0.078125,0 -0.1875,0.015625 -0.1875,0.1875 0,0.125 0.09375,0.125 0.25,0.125 0.46875,0 0.484375,0.0625 0.484375,0.171875 0,0.0625 -0.078125,0.40625 -0.125,0.609375 l -0.828125,3.25 c -0.109375,0.5 -0.15625,0.671875 -0.15625,1.015625 0,0.9375 0.53125,1.5625 1.265625,1.5625 1.171875,0 2.40625,-1.484375 2.40625,-2.921875 0,-0.90625 -0.53125,-1.59375 -1.328125,-1.59375 -0.453125,0 -0.875,0.296875 -1.171875,0.59375 z M 1.453125,-3.046875 C 1.5,-3.265625 1.5,-3.28125 1.59375,-3.390625 2.078125,-4.03125 2.53125,-4.1875 2.796875,-4.1875 c 0.359375,0 0.625,0.296875 0.625,0.9375 0,0.59375 -0.328125,1.734375 -0.515625,2.109375 -0.328125,0.671875 -0.78125,1.03125 -1.171875,1.03125 -0.34375,0 -0.671875,-0.265625 -0.671875,-1 0,-0.203125 0,-0.390625 0.15625,-1.015625 z m 0,0"
             transform="translate(148.712,134.765)"
             id="path1137" />
        </g>
      </g>
    </g>
    <g
       id="g1359"
       ns1:jacobian_sqrt="0.352778"
       inkscapeversion="0.48.2"
       ns1:alignment="middle center"
       ns1:scale="1.0"
       ns1:preamble="default_packages.tex"
       ns1:text="\\(c\\)\n"
       ns1:pdfconverter="pdf2svg"
       ns1:texconverter="pdflatex"
       ns1:version="0.8.0"
       transform="matrix(0.352778,0,0,0.352778,63.843056,87.804256)">
      <g
         id="g1357">
        <g
           id="g1355"
           style="fill:#000000;fill-opacity:1">
          <path
             id="path1353"
             transform="translate(148.712,134.765)"
             d="m 3.953125,-3.78125 c -0.171875,0 -0.296875,0 -0.4375,0.125 -0.171875,0.15625 -0.1875,0.328125 -0.1875,0.390625 0,0.25 0.1875,0.359375 0.375,0.359375 0.28125,0 0.546875,-0.25 0.546875,-0.640625 0,-0.484375 -0.46875,-0.859375 -1.171875,-0.859375 -1.34375,0 -2.671875,1.421875 -2.671875,2.828125 0,0.90625 0.578125,1.6875 1.625,1.6875 1.421875,0 2.25,-1.0625 2.25,-1.171875 0,-0.0625 -0.046875,-0.140625 -0.109375,-0.140625 -0.0625,0 -0.078125,0.03125 -0.140625,0.109375 -0.78125,0.984375 -1.875,0.984375 -1.984375,0.984375 -0.625,0 -0.90625,-0.484375 -0.90625,-1.09375 0,-0.40625 0.203125,-1.375 0.546875,-1.984375 0.3125,-0.578125 0.859375,-1 1.40625,-1 0.328125,0 0.71875,0.125 0.859375,0.40625 z m 0,0"
             style="stroke:none;stroke-width:0"
             inkscape:connector-curvature="0" />
        </g>
      </g>
    </g>
  </g>
</svg>
